<svg width="22" height="22" viewBox="0 0 22 22" fill="none" xmlns="http://www.w3.org/2000/svg">
<path d="M6.41669 2.75001V3.66668C6.41669 4.15291 6.60984 4.61922 6.95366 4.96304C7.29747 5.30686 7.76379 5.50001 8.25002 5.50001H13.75C14.2363 5.50001 14.7026 5.30686 15.0464 4.96304C15.3902 4.61922 15.5834 4.15291 15.5834 3.66668V2.75001H16.5C16.9863 2.75001 17.4526 2.94316 17.7964 3.28698C18.1402 3.6308 18.3334 4.09711 18.3334 4.58334V14.6667C18.3334 16.1254 17.7539 17.5243 16.7224 18.5558C15.691 19.5872 14.292 20.1667 12.8334 20.1667H5.50002C5.01379 20.1667 4.54747 19.9735 4.20366 19.6297C3.85984 19.2859 3.66669 18.8196 3.66669 18.3333V4.58334C3.66669 4.09711 3.85984 3.6308 4.20366 3.28698C4.54747 2.94316 5.01379 2.75001 5.50002 2.75001H6.41669ZM11 12.8333H8.25002C8.00691 12.8333 7.77375 12.9299 7.60184 13.1018C7.42993 13.2737 7.33335 13.5069 7.33335 13.75C7.33335 13.9931 7.42993 14.2263 7.60184 14.3982C7.77375 14.5701 8.00691 14.6667 8.25002 14.6667H11C11.2431 14.6667 11.4763 14.5701 11.6482 14.3982C11.8201 14.2263 11.9167 13.9931 11.9167 13.75C11.9167 13.5069 11.8201 13.2737 11.6482 13.1018C11.4763 12.9299 11.2431 12.8333 11 12.8333ZM13.75 9.16668H8.25002C8.01638 9.16694 7.79166 9.2564 7.62177 9.41679C7.45187 9.57718 7.34964 9.79638 7.33595 10.0296C7.32225 10.2629 7.39814 10.4925 7.5481 10.6717C7.69805 10.8509 7.91077 10.966 8.14277 10.9936L8.25002 11H13.75C13.9931 11 14.2263 10.9034 14.3982 10.7315C14.5701 10.5596 14.6667 10.3265 14.6667 10.0833C14.6667 9.84023 14.5701 9.60707 14.3982 9.43516C14.2263 9.26325 13.9931 9.16668 13.75 9.16668ZM12.8334 1.83334C13.067 1.8336 13.2917 1.92307 13.4616 2.08345C13.6315 2.24384 13.7337 2.46305 13.7474 2.69629C13.7611 2.92953 13.6852 3.15919 13.5353 3.33836C13.3853 3.51752 13.1726 3.63267 12.9406 3.66026L12.8334 3.66668H9.16669C8.93305 3.66642 8.70832 3.57695 8.53843 3.41657C8.36854 3.25618 8.2663 3.03697 8.25261 2.80373C8.23892 2.57049 8.31481 2.34083 8.46476 2.16166C8.61472 1.9825 8.82743 1.86736 9.05944 1.83976L9.16669 1.83334H12.8334Z" fill="#9ACDFF"/>
</svg>
