<svg width="26" height="26" viewBox="0 0 26 26" fill="none" xmlns="http://www.w3.org/2000/svg">
<g clip-path="url(#clip0_67_658)">
<path d="M7.66829 25.5133C7.15567 25.1722 6.70135 24.7508 6.32279 24.2653C5.90637 23.7641 5.52054 23.2383 5.16741 22.6906C4.33873 21.4766 3.68885 20.1498 3.23772 18.7508C2.69579 17.1258 2.43335 15.5683 2.43335 14.0448C2.43335 12.3435 2.80141 10.8582 3.52129 9.61021C4.05492 8.63475 4.8395 7.8196 5.79385 7.24908C6.71872 6.67462 7.78142 6.36025 8.86997 6.33908C9.25104 6.33908 9.66135 6.39433 10.0968 6.49996C10.4097 6.58852 10.7907 6.72827 11.2563 6.90215C11.8486 7.13046 12.1744 7.27021 12.2849 7.30433C12.6318 7.43108 12.9235 7.48633 13.1527 7.48633C13.3265 7.48633 13.5719 7.43108 13.8506 7.34658C14.0074 7.29133 14.3032 7.19383 14.7265 7.01265C15.1457 6.8599 15.4756 6.72908 15.738 6.63158C16.1402 6.51296 16.5294 6.40327 16.8763 6.34802C17.2876 6.28318 17.705 6.266 18.1203 6.29683C18.8398 6.34386 19.5486 6.49635 20.2238 6.7494C21.328 7.19383 22.221 7.88771 22.8856 8.87408C22.6047 9.04722 22.341 9.24693 22.0983 9.47046C21.5698 9.93893 21.1197 10.4889 20.765 11.0995C20.3013 11.934 20.0609 12.8741 20.067 13.8287C20.0841 15.0011 20.3847 16.0338 20.977 16.9268C21.4125 17.5886 21.9784 18.1545 22.6402 18.59C22.979 18.8183 23.2707 18.9751 23.5502 19.0807C23.4194 19.487 23.2797 19.8802 23.1147 20.2702C22.7406 21.1448 22.2873 21.9833 21.7603 22.7751C21.2907 23.4568 20.9226 23.9646 20.6431 24.3026C20.2076 24.8186 19.7883 25.2126 19.365 25.4873C18.8995 25.796 18.3494 25.961 17.7904 25.961C17.4118 25.9755 17.0333 25.9297 16.6692 25.8253C16.3563 25.7196 16.0468 25.6051 15.7421 25.4743C15.4253 25.3288 15.0987 25.2058 14.7647 25.1062C13.9389 24.8941 13.0731 24.8927 12.2467 25.1021C11.9079 25.1996 11.5821 25.3134 11.2603 25.4531C10.8078 25.6433 10.5072 25.7708 10.3333 25.8253C9.98635 25.9268 9.62641 25.9902 9.26241 26.0113C8.69935 26.0113 8.17447 25.8505 7.65447 25.5246L7.66829 25.5133ZM15.0945 5.51358C14.3584 5.88165 13.6556 6.03846 12.9577 5.98727C12.848 5.28446 12.9577 4.5654 13.2493 3.77808C13.4977 3.11107 13.8646 2.49448 14.3324 1.95808C14.8264 1.39341 15.4259 0.930576 16.0972 0.59552C16.8122 0.227458 17.4938 0.0283955 18.1455 -0.000854492C18.23 0.735271 18.1455 1.45921 17.8749 2.24165C17.6245 2.93331 17.2583 3.57734 16.7918 4.14615C16.3158 4.71159 15.7315 5.17622 15.0734 5.51277L15.0945 5.51358Z" fill="black"/>
</g>
<defs>
<clipPath id="clip0_67_658">
<rect width="26" height="26" fill="white"/>
</clipPath>
</defs>
</svg>
