<svg width="22" height="22" viewBox="0 0 22 22" fill="none" xmlns="http://www.w3.org/2000/svg">
<path d="M9.16663 12.8333H12.8333V19.25H9.16663V12.8333Z" fill="#88C3FE"/>
<path d="M18.7183 9.33167L11.6508 2.10834C11.5656 2.02242 11.4642 1.95422 11.3525 1.90769C11.2408 1.86115 11.121 1.83719 11 1.83719C10.879 1.83719 10.7592 1.86115 10.6475 1.90769C10.5358 1.95422 10.4344 2.02242 10.3492 2.10834L3.28165 9.34084C3.11063 9.51323 2.97557 9.71788 2.8843 9.94291C2.79303 10.1679 2.74738 10.4089 2.74998 10.6517V18.3333C2.74927 18.8026 2.92853 19.2543 3.25083 19.5953C3.57313 19.9364 4.01394 20.1409 4.48248 20.1667H7.33332V11.9167C7.33332 11.6736 7.42989 11.4404 7.6018 11.2685C7.77371 11.0966 8.00687 11 8.24998 11H13.75C13.9931 11 14.2263 11.0966 14.3982 11.2685C14.5701 11.4404 14.6667 11.6736 14.6667 11.9167V20.1667H17.5175C17.986 20.1409 18.4268 19.9364 18.7491 19.5953C19.0714 19.2543 19.2507 18.8026 19.25 18.3333V10.6517C19.2507 10.1594 19.0601 9.68604 18.7183 9.33167V9.33167Z" fill="#88C3FE"/>
</svg>
