<svg xmlns="http://www.w3.org/2000/svg" xmlns:xlink="http://www.w3.org/1999/xlink" width="500" zoomAndPan="magnify" viewBox="0 0 375 374.999991" height="500" preserveAspectRatio="xMidYMid meet" version="1.0"><defs><g/><clipPath id="d1afd5420f"><path d="M 21.273438 92.378906 L 89.523438 92.378906 L 89.523438 111 L 21.273438 111 Z M 21.273438 92.378906 " clip-rule="nonzero"/></clipPath><clipPath id="f70db5b306"><path d="M 31 114 L 79 114 L 79 183.878906 L 31 183.878906 Z M 31 114 " clip-rule="nonzero"/></clipPath></defs><rect x="-37.5" width="450" fill="#ffffff" y="-37.499999" height="449.999989" fill-opacity="1"/><rect x="-37.5" width="450" fill="#ffffff" y="-37.499999" height="449.999989" fill-opacity="1"/><rect x="-37.5" width="450" fill="#ffffff" y="-37.499999" height="449.999989" fill-opacity="1"/><g fill="#254b85" fill-opacity="1"><g transform="translate(45.027702, 196.262975)"><g><path d="M 4.453125 0 L 4.453125 -63.71875 L 17.5625 -63.71875 L 17.5625 0 Z M 4.453125 0 "/></g></g></g><g fill="#254b85" fill-opacity="1"><g transform="translate(61.62207, 196.262975)"><g><path d="M 42.90625 -17.1875 L 15.34375 -17.1875 C 15.34375 -14.519531 16.207031 -12.539062 17.9375 -11.25 C 19.664062 -9.96875 21.539062 -9.328125 23.5625 -9.328125 C 25.6875 -9.328125 27.363281 -9.613281 28.59375 -10.1875 C 29.832031 -10.757812 31.242188 -11.882812 32.828125 -13.5625 L 42.3125 -8.8125 C 38.351562 -2.195312 31.78125 1.109375 22.59375 1.109375 C 16.863281 1.109375 11.945312 -0.851562 7.84375 -4.78125 C 3.75 -8.707031 1.703125 -13.4375 1.703125 -18.96875 C 1.703125 -24.5 3.75 -29.238281 7.84375 -33.1875 C 11.945312 -37.144531 16.863281 -39.125 22.59375 -39.125 C 28.625 -39.125 33.523438 -37.378906 37.296875 -33.890625 C 41.078125 -30.410156 42.96875 -25.4375 42.96875 -18.96875 C 42.96875 -18.082031 42.945312 -17.488281 42.90625 -17.1875 Z M 15.703125 -24.453125 L 30.15625 -24.453125 C 29.863281 -26.429688 29.085938 -27.945312 27.828125 -29 C 26.566406 -30.0625 24.945312 -30.59375 22.96875 -30.59375 C 20.789062 -30.59375 19.0625 -30.023438 17.78125 -28.890625 C 16.5 -27.753906 15.804688 -26.273438 15.703125 -24.453125 Z M 15.703125 -24.453125 "/></g></g></g><g fill="#254b85" fill-opacity="1"><g transform="translate(100.886764, 196.262975)"><g><path d="M 2.734375 9.328125 L 13.484375 4.078125 C 15.460938 7.335938 18.894531 8.96875 23.78125 8.96875 C 26.050781 8.96875 28.160156 8.238281 30.109375 6.78125 C 32.066406 5.320312 33.046875 3.085938 33.046875 0.078125 L 33.046875 -2.734375 C 30.722656 -0.171875 26.570312 1.109375 20.59375 1.109375 C 15.113281 1.109375 10.59375 -0.828125 7.03125 -4.703125 C 3.476562 -8.578125 1.703125 -13.332031 1.703125 -18.96875 C 1.703125 -24.601562 3.476562 -29.367188 7.03125 -33.265625 C 10.59375 -37.171875 15.113281 -39.125 20.59375 -39.125 C 25.488281 -39.125 29.566406 -37.617188 32.828125 -34.609375 L 33.046875 -34.609375 L 33.046875 -38.015625 L 46.15625 -38.015625 L 46.15625 1.03125 C 46.15625 7.207031 44.101562 11.972656 40 15.328125 C 35.90625 18.691406 30.5 20.375 23.78125 20.375 C 12.914062 20.375 5.898438 16.691406 2.734375 9.328125 Z M 18.1875 -25.40625 C 16.488281 -23.726562 15.640625 -21.582031 15.640625 -18.96875 C 15.640625 -16.351562 16.453125 -14.21875 18.078125 -12.5625 C 19.710938 -10.90625 21.863281 -10.078125 24.53125 -10.078125 C 27.09375 -10.078125 29.203125 -10.914062 30.859375 -12.59375 C 32.515625 -14.269531 33.34375 -16.394531 33.34375 -18.96875 C 33.34375 -21.582031 32.488281 -23.726562 30.78125 -25.40625 C 29.082031 -27.09375 27 -27.9375 24.53125 -27.9375 C 22.007812 -27.9375 19.894531 -27.09375 18.1875 -25.40625 Z M 18.1875 -25.40625 "/></g></g></g><g fill="#254b85" fill-opacity="1"><g transform="translate(146.078341, 196.262975)"><g><path d="M 7.03125 -4.703125 C 3.476562 -8.578125 1.703125 -13.332031 1.703125 -18.96875 C 1.703125 -24.601562 3.476562 -29.367188 7.03125 -33.265625 C 10.59375 -37.171875 15.113281 -39.125 20.59375 -39.125 C 25.632812 -39.125 29.785156 -37.539062 33.046875 -34.375 L 33.046875 -38.015625 L 46.15625 -38.015625 L 46.15625 0 L 33.1875 0 L 33.1875 -4.296875 L 33.046875 -4.296875 C 29.785156 -0.691406 25.632812 1.109375 20.59375 1.109375 C 15.113281 1.109375 10.59375 -0.828125 7.03125 -4.703125 Z M 18.1875 -25.40625 C 16.488281 -23.726562 15.640625 -21.582031 15.640625 -18.96875 C 15.640625 -16.351562 16.453125 -14.21875 18.078125 -12.5625 C 19.710938 -10.90625 21.863281 -10.078125 24.53125 -10.078125 C 27.09375 -10.078125 29.203125 -10.914062 30.859375 -12.59375 C 32.515625 -14.269531 33.34375 -16.394531 33.34375 -18.96875 C 33.34375 -21.582031 32.488281 -23.726562 30.78125 -25.40625 C 29.082031 -27.09375 27 -27.9375 24.53125 -27.9375 C 22.007812 -27.9375 19.894531 -27.09375 18.1875 -25.40625 Z M 18.1875 -25.40625 "/></g></g></g><g fill="#254b85" fill-opacity="1"><g transform="translate(191.269912, 196.262975)"><g><path d="M 4.453125 0 L 4.453125 -63.71875 L 17.5625 -63.71875 L 17.5625 0 Z M 4.453125 0 "/></g></g></g><g fill="#ffc861" fill-opacity="1"><g transform="translate(207.859722, 196.262975)"><g><path d="M 60.09375 0 L 40.90625 0 L 18.375 -25.9375 L 18.375 0 L 4.453125 0 L 4.453125 -61.125 L 18.375 -61.125 L 18.375 -36.15625 L 39.34375 -61.125 L 56.234375 -61.125 L 31.640625 -32.15625 Z M 60.09375 0 "/></g></g></g><g fill="#ffc861" fill-opacity="1"><g transform="translate(260.756234, 196.262975)"><g><path d="M 7.03125 -4.703125 C 3.476562 -8.578125 1.703125 -13.332031 1.703125 -18.96875 C 1.703125 -24.601562 3.476562 -29.367188 7.03125 -33.265625 C 10.59375 -37.171875 15.113281 -39.125 20.59375 -39.125 C 25.632812 -39.125 29.785156 -37.539062 33.046875 -34.375 L 33.046875 -38.015625 L 46.15625 -38.015625 L 46.15625 0 L 33.1875 0 L 33.1875 -4.296875 L 33.046875 -4.296875 C 29.785156 -0.691406 25.632812 1.109375 20.59375 1.109375 C 15.113281 1.109375 10.59375 -0.828125 7.03125 -4.703125 Z M 18.1875 -25.40625 C 16.488281 -23.726562 15.640625 -21.582031 15.640625 -18.96875 C 15.640625 -16.351562 16.453125 -14.21875 18.078125 -12.5625 C 19.710938 -10.90625 21.863281 -10.078125 24.53125 -10.078125 C 27.09375 -10.078125 29.203125 -10.914062 30.859375 -12.59375 C 32.515625 -14.269531 33.34375 -16.394531 33.34375 -18.96875 C 33.34375 -21.582031 32.488281 -23.726562 30.78125 -25.40625 C 29.082031 -27.09375 27 -27.9375 24.53125 -27.9375 C 22.007812 -27.9375 19.894531 -27.09375 18.1875 -25.40625 Z M 18.1875 -25.40625 "/></g></g></g><g fill="#ffc861" fill-opacity="1"><g transform="translate(305.947805, 196.262975)"><g><path d="M 4.453125 0 L 4.453125 -38.015625 L 17.5625 -38.015625 L 17.5625 -34.015625 L 17.703125 -34.015625 C 21.117188 -37.421875 24.75 -39.125 28.59375 -39.125 C 30.476562 -39.125 32.34375 -38.875 34.1875 -38.375 C 36.039062 -37.882812 37.816406 -37.117188 39.515625 -36.078125 C 41.222656 -35.046875 42.609375 -33.578125 43.671875 -31.671875 C 44.734375 -29.773438 45.265625 -27.566406 45.265625 -25.046875 L 45.265625 0 L 32.15625 0 L 32.15625 -21.484375 C 32.15625 -23.460938 31.523438 -25.191406 30.265625 -26.671875 C 29.003906 -28.148438 27.363281 -28.890625 25.34375 -28.890625 C 23.363281 -28.890625 21.570312 -28.125 19.96875 -26.59375 C 18.363281 -25.0625 17.5625 -23.359375 17.5625 -21.484375 L 17.5625 0 Z M 4.453125 0 "/></g></g></g><g clip-path="url(#d1afd5420f)"><path fill="#254b85" d="M 37.050781 101.234375 L 31.929688 92.378906 L 21.300781 92.378906 L 22.09375 93.753906 L 30.398438 108.121094 L 31.722656 110.410156 L 79.078125 110.410156 L 80.40625 108.109375 L 88.714844 93.742188 L 89.5 92.378906 L 78.894531 92.378906 L 73.777344 101.234375 L 68.570312 101.234375 L 68.570312 92.378906 L 59.382812 92.378906 L 59.382812 101.234375 L 51.417969 101.234375 L 51.417969 92.378906 L 42.234375 92.378906 L 42.234375 101.234375 Z M 37.050781 101.234375 " fill-opacity="1" fill-rule="nonzero"/></g><g clip-path="url(#f70db5b306)"><path fill="#254b85" d="M 41.011719 172.375 L 41.011719 123.28125 L 69.789062 123.28125 L 69.789062 150.609375 C 72.769531 149.035156 75.835938 147.578125 78.976562 146.257812 L 78.976562 114.105469 L 31.824219 114.105469 L 31.824219 183.878906 C 34.46875 179.917969 37.550781 176.0625 41.011719 172.375 Z M 41.011719 172.375 " fill-opacity="1" fill-rule="nonzero"/></g></svg>