<svg width="22" height="22" viewBox="0 0 22 22" fill="none" xmlns="http://www.w3.org/2000/svg">
<path d="M11 20.1667C10.5136 20.1643 10.0477 19.9707 9.70298 19.6276C9.35822 19.2846 9.16227 18.8197 9.15746 18.3333H12.8241C12.8261 18.5784 12.7793 18.8215 12.6866 19.0483C12.5681 19.3204 12.3866 19.5603 12.1571 19.7484C11.9276 19.9364 11.6566 20.0672 11.3666 20.13H11.3235C11.217 20.1522 11.1087 20.1645 11 20.1667ZM18.3333 17.4167H3.66663V15.5833L5.49996 14.6667V9.62501C5.45167 8.3317 5.74373 7.04838 6.34696 5.90334C6.64381 5.37834 7.0486 4.92224 7.53464 4.56514C8.02067 4.20805 8.5769 3.95806 9.16663 3.83168V1.83334H12.8333V3.83168C15.1974 4.39451 16.5 6.45151 16.5 9.62501V14.6667L18.3333 15.5833V17.4167Z" fill="#0578EC"/>
</svg>
