<svg width="22" height="22" viewBox="0 0 22 22" fill="none" xmlns="http://www.w3.org/2000/svg">
<path d="M11 3.66666C11.9725 3.66666 12.9051 4.05296 13.5927 4.7406C14.2804 5.42823 14.6667 6.36086 14.6667 7.33332C14.6667 8.30578 14.2804 9.23841 13.5927 9.92605C12.9051 10.6137 11.9725 11 11 11C10.0276 11 9.09493 10.6137 8.4073 9.92605C7.71966 9.23841 7.33335 8.30578 7.33335 7.33332C7.33335 6.36086 7.71966 5.42823 8.4073 4.7406C9.09493 4.05296 10.0276 3.66666 11 3.66666ZM11 12.8333C15.0517 12.8333 18.3334 14.4742 18.3334 16.5V18.3333H3.66669V16.5C3.66669 14.4742 6.94835 12.8333 11 12.8333Z" fill="#9ACDFF"/>
</svg>
