<?xml version="1.0" standalone="no"?>
<!DOCTYPE svg PUBLIC "-//W3C//DTD SVG 20010904//EN"
 "http://www.w3.org/TR/2001/REC-SVG-20010904/DTD/svg10.dtd">
<svg version="1.0" xmlns="http://www.w3.org/2000/svg"
 width="24.000000pt" height="24.000000pt" viewBox="0 0 24.000000 24.000000"
 preserveAspectRatio="xMidYMid meet">

<g transform="translate(0.000000,24.000000) scale(0.100000,-0.100000)"
fill="#1B61BA" stroke="none">
<path d="M83 206 c-4 -8 -24 -16 -43 -18 -29 -2 -35 -7 -35 -27 0 -21 9 -27
58 -43 56 -19 58 -19 115 0 48 16 57 22 57 43 0 20 -6 25 -35 27 -19 2 -39 10
-43 18 -4 8 -21 14 -37 14 -16 0 -33 -6 -37 -14z m50 -13 c-7 -2 -19 -2 -25 0
-7 3 -2 5 12 5 14 0 19 -2 13 -5z"/>
<path d="M2 73 l3 -48 115 0 115 0 3 48 c2 26 0 47 -4 47 -4 0 -31 -8 -61 -17
-50 -16 -56 -16 -106 0 -30 9 -57 17 -61 17 -4 0 -6 -21 -4 -47z"/>
</g>
</svg>
